# xmcd
#
# Track frame offsets: 
#        150
#        24005
#        44052
#        62737
#        77822
#        96082
#        108490
#        126077
#        141945
#        160040
#        176890
#        197457
#        214315
#        233787
#        249975
#        269375
#        285787
#        304927
#        322817
#        338512
#
# Disc length: 4716 seconds
#
# Revision: 3
# Processed by: cddbd v1.5.2PL0 Copyright (c) Steve Scherf et al.
# Submitted via: ExactAudioCopy v1.0b3
#
DISCID=12126a14
DTITLE=Various Artist - The Soul Of A Woman
DYEAR=1998
DGENRE=Soul
TTITLE0=Lisa Stansfield - All Woman
TTITLE1=Gladys Knight and The Pips - Midnight Train To Georgia
TTITLE2=Phyllis Nelson - Move Closer
TTITLE3=Randy Crawford - Secret Combination
TTITLE4=Rose Royce - Wishing On A Star
TTITLE5=Dionne Warwick - The Look Of Love
TTITLE6=Aretha Franklin - Call Me
TTITLE7=Ruby Winters - I Will
TTITLE8=Ruby Turner - I'd Rather Go Blind
TTITLE9=Millie Jackson - If Loving You Is Wrong
TTITLE10=Oleta Adams - Get Here
TTITLE11=Joyce Sims - Come Into My Life
TTITLE12=Brenda Russell - Piano In The Dark
TTITLE13=Mica Paris - My One Temptation
TTITLE14=Paula Abdul - Rush Rush
TTITLE15=Vanessa Williams - Save The Best For Last
TTITLE16=Wendy Moten - Come In Out Of The Rain
TTITLE17=The Three Degrees - Woman In Love
TTITLE18=Dorothy Moore - Misty Blue
TTITLE19=Minnie Riperton - Loving You
EXTD=
EXTT0=
EXTT1=
EXTT2=
EXTT3=
EXTT4=
EXTT5=
EXTT6=
EXTT7=
EXTT8=
EXTT9=
EXTT10=
EXTT11=
EXTT12=
EXTT13=
EXTT14=
EXTT15=
EXTT16=
EXTT17=
EXTT18=
EXTT19=
PLAYORDER=
